<svg xmlns="http://www.w3.org/2000/svg" viewBox="0 0 1600 1000" width="1600" height="1000" role="img" aria-label="RF Report Generator hero placeholder">
  <defs>
    <linearGradient id="bg-rg" x1="0" y1="0" x2="0" y2="1">
      <stop offset="0" stop-color="#0a0a0a"/>
      <stop offset="1" stop-color="#1a1413"/>
    </linearGradient>
    <linearGradient id="plot" x1="0" y1="0" x2="1" y2="0">
      <stop offset="0" stop-color="#e23614" stop-opacity="0"/>
      <stop offset="0.2" stop-color="#e23614" stop-opacity="0.9"/>
      <stop offset="1" stop-color="#e23614" stop-opacity="0"/>
    </linearGradient>
  </defs>
  <rect width="1600" height="1000" fill="url(#bg-rg)"/>
  <!-- Grid -->
  <g stroke="#ece7df" stroke-opacity="0.08" stroke-width="1">
    <path d="M0 125 H1600 M0 250 H1600 M0 375 H1600 M0 500 H1600 M0 625 H1600 M0 750 H1600 M0 875 H1600"/>
    <path d="M100 0 V1000 M300 0 V1000 M500 0 V1000 M700 0 V1000 M900 0 V1000 M1100 0 V1000 M1300 0 V1000 M1500 0 V1000"/>
  </g>
  <!-- Axes -->
  <g stroke="#ece7df" stroke-opacity="0.35" stroke-width="1">
    <path d="M80 920 L1520 920"/>
    <path d="M80 80 L80 920"/>
  </g>
  <!-- Waveform / spectrum curve -->
  <path d="M80 820
           C 200 780, 260 620, 360 640
           S 500 820, 600 720
           S 760 420, 880 520
           S 1080 200, 1200 360
           S 1380 680, 1520 560" fill="none" stroke="url(#plot)" stroke-width="3"/>
  <!-- Secondary dim curve -->
  <path d="M80 880 C 280 870, 380 780, 520 820 S 780 720, 980 760 S 1280 640, 1520 700" fill="none" stroke="#ece7df" stroke-opacity="0.3" stroke-width="1.2"/>
  <!-- Labels -->
  <g font-family="ui-monospace, Menlo, monospace" font-size="16" fill="#ece7df" fill-opacity="0.55" letter-spacing="2">
    <text x="80" y="60">SPECTRUM · SWEEP 04 · +7 dBm · 2.40–2.48 GHz</text>
    <text x="1360" y="60" text-anchor="end">REPORT 12 · 2026-04-14</text>
    <text x="80" y="970">FREQ</text>
    <text x="1520" y="970" text-anchor="end">MHz</text>
  </g>
  <!-- Corner tick -->
  <g stroke="#e23614" stroke-width="1" fill="none">
    <circle cx="1500" cy="80" r="6"/>
    <path d="M1500 66 v-14 M1500 94 v14 M1486 80 h-14 M1514 80 h14"/>
  </g>
</svg>
